# xmcd
#
# Track frame offsets: 
#        150
#        12474
#        29779
#        48797
#        65046
#        80545
#        94564
#        105618
#        122002
#        141839
#        163582
#        183350
#
# Disc length: 2588 seconds
#
# Revision: 0
# Processed by: cddbd v1.5.2PL0 Copyright (c) Steve Scherf et al.
# Submitted via: ExactAudioCopy v0.99pb5
#
DISCID=9f0a1a0c
DTITLE=Good Time Ramblers - Nashville Cowboy
DYEAR=2009
DGENRE=Country
TTITLE0=Coming Back Home
TTITLE1=Ain't Livivin Long Like This
TTITLE2=Crop Rotation
TTITLE3=Pour Me
TTITLE4=Drunk In Mexico
TTITLE5=Hard Rock Hotel
TTITLE6=The Gospel Song
TTITLE7=Freight Train
TTITLE8=Nashville Cowboy
TTITLE9=Single Barrel Whiskey Dreams
TTITLE10=The Man
TTITLE11=Straight And Narrow Life
EXTD=
EXTT0=
EXTT1=
EXTT2=
EXTT3=
EXTT4=
EXTT5=
EXTT6=
EXTT7=
EXTT8=
EXTT9=
EXTT10=
EXTT11=
PLAYORDER=
